<svg id="Layer_5" enable-background="new 0 0 64 64" height="512" viewBox="0 0 64 64" width="512" xmlns="http://www.w3.org/2000/svg"><path d="m48 2c-7.73 0-14 6.27-14 14 0 .4.02.79.05 1.17l4.84 10.83h3.11c1.73 0 3.29.73 4.38 1.91.53.06 1.07.09 1.62.09 7.73 0 14-6.27 14-14s-6.27-14-14-14z" fill="#e6e9ed"/><path d="m48 6c2.76 0 5.26 1.12 7.07 2.93s2.93 4.31 2.93 7.07-1.12 5.26-2.93 7.07-4.31 2.93-7.07 2.93-5.27-1.12-7.07-2.93c-.34-.33-.64-.69-.93-1.07 0-.98-.48-1.91-1.45-2.73-.36-1.03-.55-2.13-.55-3.27 0-2.76 1.12-5.26 2.93-7.07s4.31-2.93 7.07-2.93z" fill="#69d6f4"/><path d="m39.61 45.45c2.91 1.75 4.39 4.04 4.39 6.55 0 5.52-7.19 10-21 10s-21-4.48-21-10c0-3.4 2.72-6.4 8.04-8.21l.1.56c-2.79 1.45-4.14 3.44-4.14 5.65 0 4.42 5.4 8 17 8s17-3.58 17-8c0-1.53-.65-2.96-1.97-4.17.54-.09 1.07-.22 1.58-.38z" fill="#aab2bd"/><path d="m38.03 45.83c1.32 1.21 1.97 2.64 1.97 4.17 0 4.42-5.4 8-17 8s-17-3.58-17-8c0-2.21 1.35-4.2 4.14-5.65l.86 4.65c0 1.66 3.16 3 12 3s12-1.34 12-3l.56-3h.44c.69 0 1.37-.06 2.03-.17z" fill="#e6e9ed"/><path d="m39.8 23.08-.91 4.92-.74 4-1.85 9.98-.74 4.02-.56 3c0 1.66-3.16 3-12 3s-12-1.34-12-3l-.86-4.65-.1-.56-3.84-20.71c1.08 2.79 6.49 4.92 16.8 4.92s15.72-2.13 16.8-4.92z" fill="#ccd1d9"/><path d="m35.56 46 .74-4.02c4.27-.15 7.7-3.67 7.7-7.98 0-1.1-.9-2-2-2h-3.85l.74-4h3.11c1.73 0 3.29.73 4.38 1.91 1.01 1.06 1.62 2.5 1.62 4.09 0 5.37-3.53 9.92-8.39 11.45-.51.16-1.04.29-1.58.38-.66.11-1.34.17-2.03.17z" fill="#969faa"/><path d="m28.01 35.85c-.12-.16-.25-.31-.4-.46-2.12-2.12-5.91-1.78-8.45.77-2.55 2.54-2.89 6.33-.77 8.45.05.05.1.1.15.14 2.14 1.96 5.82 1.58 8.3-.91 2.37-2.37 2.83-5.81 1.17-7.99z" fill="#cf9e76"/><path d="m40 22-.2 1.08c-1.08 2.79-6.49 4.92-16.8 4.92s-15.72-2.13-16.8-4.92l-.2-1.08c0-3.21 5.08-5.84 15.98-5.99.33-.01.67-.01 1.02-.01 4.39 0 7.89.38 10.55 1.05.17.04.34.08.5.12 2.02.55 3.52 1.27 4.5 2.1.97.82 1.45 1.75 1.45 2.73z" fill="#ecc19c"/><path d="m11.938 31.906h2v11.187h-2z" transform="matrix(.983 -.182 .182 .983 -6.613 2.983)"/><path d="m13.512 44.983h2v2.034h-2z" transform="matrix(.983 -.182 .182 .983 -8.128 3.409)"/><path d="m63 16c0-8.271-6.729-15-15-15-7.142 0-13.124 5.021-14.626 11.716-.857-.657-1.938-1.156-2.957-1.623-2.064-.946-3.417-1.649-3.417-2.758s1.353-1.812 3.417-2.758c2.148-.985 4.583-2.101 4.583-4.577h-2c0 1.109-1.353 1.812-3.417 2.758-2.148.985-4.583 2.101-4.583 4.577s2.435 3.592 4.583 4.577c2.064.945 3.417 1.649 3.417 2.758 0 .068-.02.129-.03.194-2.491-.529-5.735-.864-9.97-.864-.024 0-.046.001-.071.001-.398-2.015-2.569-3.017-4.512-3.907-2.064-.947-3.417-1.65-3.417-2.759s1.353-1.812 3.417-2.758c2.148-.985 4.583-2.101 4.583-4.577h-2c0 1.109-1.353 1.812-3.417 2.758-2.148.985-4.583 2.101-4.583 4.577s2.435 3.592 4.583 4.577c1.64.751 2.818 1.353 3.238 2.123-14.217.421-15.821 4.959-15.821 6.965 0 .361.055.805.222 1.292l3.676 19.851c-5.099 1.942-7.898 5.064-7.898 8.857 0 6.682 8.636 11 22 11s22-4.318 22-11c0-2.404-1.156-4.555-3.333-6.316 4.333-2.111 7.333-6.549 7.333-11.684 0-1.081-.253-2.101-.693-3.016 8.129-.165 14.693-6.817 14.693-14.984zm-42.886 1.069c-.598.447-1.467.87-2.53 1.357-2.148.984-4.584 2.1-4.584 4.574h2c0-1.108 1.353-1.811 3.416-2.756 1.717-.787 3.614-1.659 4.308-3.24.094 0 .181-.004.276-.004 3.287 0 6.021.226 8.258.603-.482.264-1.039.531-1.674.822-2.148.985-4.584 2.101-4.584 4.575h2c0-1.108 1.353-1.811 3.416-2.756 1.237-.567 2.567-1.179 3.475-2.068 3.428.952 5.06 2.359 5.102 3.768l-.14.754c-.85 2.239-5.837 4.302-15.853 4.302-10.02 0-15.007-2.064-15.855-4.304l-.138-.751c.066-2.241 4.16-4.478 13.107-4.876zm18.948-.069h1.938v-2h-1.941c.193-1.733.88-3.316 1.916-4.611l1.368 1.368 1.414-1.414-1.368-1.368c1.295-1.036 2.878-1.723 4.611-1.916v1.941h2v-1.941c1.733.193 3.316.88 4.611 1.916l-1.368 1.368 1.414 1.414 1.368-1.368c1.036 1.295 1.723 2.878 1.916 4.611h-1.941v2h1.941c-.193 1.733-.88 3.316-1.916 4.611l-1.368-1.368-1.414 1.414 1.368 1.368c-1.295 1.036-2.878 1.723-4.611 1.916v-1.941h-2v1.942c-1.708-.186-3.295-.853-4.615-1.914l1.372-1.372-1.414-1.414-1.364 1.364c-.082-.802-.446-1.866-1.56-2.905-.174-.553-.293-1.122-.357-1.701zm-5.045 31.818-.017.182c0 .02-.299 2-11 2s-11-1.98-11-2l-4.205-22.783c2.443 1.519 6.952 2.783 15.205 2.783 8.249 0 12.758-1.263 15.202-2.781zm4.962-15.818h3.021c.552 0 1 .449 1 1 0 3.341-2.317 6.128-5.469 6.824zm-1.325 13.894c.877.925 1.346 1.963 1.346 3.106 0 4.318-6.131 7-16 7s-16-2.682-16-7c0-1.832 1.146-3.147 2.419-4.046l.583 3.149c.102 2.658 4.24 3.897 12.998 3.897s12.896-1.239 12.998-3.897l.391-2.108c.427-.013.849-.048 1.265-.101zm5.346 5.106c0 6.217-10.045 9-20 9s-20-2.783-20-9c0-1.842.948-3.505 2.727-4.891-.475.899-.727 1.869-.727 2.891 0 2.111 1.298 9 18 9s18-6.889 18-9c0-1.005-.246-1.966-.709-2.859 1.769 1.393 2.709 3.05 2.709 4.859zm-6.237-7.026.381-2.055c4.465-.562 7.856-4.335 7.856-8.919 0-1.654-1.346-3-3-3h-2.649l.37-2h2.279c2.757 0 5 2.243 5 5 0 5.809-4.526 10.581-10.237 10.974zm11.237-15.974c-.396 0-.792-.032-1.185-.068-1.256-1.194-2.949-1.932-4.815-1.932h-1.909l.531-2.867c2.007 1.813 4.638 2.867 7.378 2.867 6.065 0 11-4.935 11-11s-4.935-11-11-11-11 4.935-11 11c0 .392.028.781.069 1.168-.592-.277-1.275-.539-2.053-.779-.004-.13-.016-.258-.016-.389 0-7.168 5.832-13 13-13s13 5.832 13 13-5.832 13-13 13z"/><path d="m49 11h-2v3.613l-1.684-.562-.632 1.898 4.316 1.438z"/><path d="m17.684 45.316c1.097 1.098 2.578 1.684 4.219 1.684.212 0 .427-.01.644-.029 1.829-.167 3.605-1.027 5.001-2.423 2.932-2.931 3.276-7.356.769-9.864-1.239-1.239-2.967-1.825-4.863-1.655-1.829.167-3.605 1.027-5.001 2.423-2.932 2.931-3.277 7.356-.769 9.864zm8.45-2.182c-1.065 1.066-2.404 1.722-3.768 1.846-.543.047-1.054-.011-1.534-.132.297-.205.601-.452.916-.767 1.294-1.293 1.537-2.448 1.732-3.375.176-.838.314-1.5 1.188-2.373.872-.872 1.533-1.011 2.371-1.187.161-.034.335-.073.511-.116.906 1.783.393 4.294-1.416 6.104zm-2.5-8.113c.153-.014.305-.021.455-.021.633 0 1.218.137 1.743.376-.763.214-1.632.596-2.577 1.541-1.294 1.294-1.537 2.448-1.732 3.375-.176.838-.314 1.5-1.188 2.373-.547.548-1.014.798-1.458.951-1.444-1.772-1.053-4.707.99-6.751 1.065-1.065 2.404-1.72 3.767-1.844z"/></svg>